<svg width="1920" height="1200" style="background-color:white" version="1.1" baseProfile="full" xmlns="http://www.w3.org/2000/svg">
<g transform="translate(0,1200) scale(1,-1)">
<polyline stroke="black" fill="none" points="1098.303869141625,959.0541461332268 1157.1841912052387,949.2747241543441" />
<polyline stroke="black" fill="none" points="1156.4949766674324,916.1104064828742 1096.376095029204,897.9658173633793" />
<polyline stroke="black" fill="none" points="1403.950696114355,641.4322967668362 1405.8672818345674,666.7784265464696" />
<polyline stroke="black" fill="none" points="1403.950696114355,641.4322967668362 1388.1961018641875,633.1377714354535" />
<polyline stroke="black" fill="none" points="1432.2132294532178,1015.1937363692379 1659.4206890785376,985.0242719561223" />
<polyline stroke="black" fill="none" points="1432.2132294532178,1015.1937363692379 1419.3073662907946,1011.432732893931" />
<polyline stroke="black" fill="none" points="1632.076982145003,742.0628797164752 1659.4206890785376,985.0242719561223" />
<polyline stroke="black" fill="none" points="1632.076982145003,742.0628797164752 1519.5293799226822,681.1566649727209" />
<polyline stroke="black" fill="none" points="1659.4206890785376,985.0242719561223 1544.3105038214592,942.941712683516" />
<polyline stroke="black" fill="none" points="1459.8304680485842,694.6827239612284 1519.5293799226822,681.1566649727209" />
<polyline stroke="black" fill="none" points="1519.5293799226822,681.1566649727209 1544.3105038214592,942.941712683516" />
<polyline stroke="black" fill="none" points="755.8274498855328,1033.860688474596 845.2175729801756,1019.6130401425623" />
<polyline stroke="black" fill="none" points="755.8274498855328,1033.860688474596 728.4891628540962,1028.5713801759828" />
<polyline stroke="black" fill="none" points="761.8941357386893,847.7497250891515 757.8094461277574,973.0579307588964" />
<polyline stroke="black" fill="none" points="916.5292870495288,1034.1082966574206 1098.796523541103,1006.7198871905732" />
<polyline stroke="black" fill="none" points="916.5292870495288,1034.1082966574206 756.9046743213732,1000.8140988885715" />
<polyline stroke="black" fill="none" points="1096.376597399009,897.9883897139243 1098.796523541103,1006.7198871905732" />
<polyline stroke="black" fill="none" points="1098.796523541103,1006.7198871905732 943.2889077543946,968.8165554624616" />
<polyline stroke="black" fill="none" points="761.8600540498661,848.7952672672405 756.9046743213732,1000.8140988885715" />
<polyline stroke="black" fill="none" points="756.9046743213732,1000.8140988885715 943.2889077543946,968.8165554624616" />
<polyline stroke="black" fill="none" points="943.6977648967904,817.163559224015 943.2889077543946,968.8165554624616" />
<polyline stroke="black" fill="none" points="1096.3481407104227,896.7097811194769 1154.5740302783142,885.8287154146308" />
<polyline stroke="black" fill="none" points="1096.3481407104227,896.7097811194769 943.6078663778652,850.5086529957039" />
<polyline stroke="black" fill="none" points="943.7014245050615,815.8061399647901 943.6078663778652,850.5086529957039" />
<polyline stroke="black" fill="none" points="943.6078663778652,850.5086529957039 1153.539261097174,805.7949109643532" />
<polyline stroke="black" fill="none" points="1152.3541085721088,768.8364023590979 1153.539261097174,805.7949109643532" />
<polyline stroke="black" fill="none" points="1308.936393544153,1026.2316839726532 1549.1381106010372,993.9400159195991" />
<polyline stroke="black" fill="none" points="1308.936393544153,1026.2316839726532 1159.346654957004,986.896171269108" />
<polyline stroke="black" fill="none" points="1523.9546332982404,727.9045514198749 1549.1381106010372,993.9400159195991" />
<polyline stroke="black" fill="none" points="1523.9546332982404,727.9045514198749 1389.8043887724846,659.4542052737412" />
<polyline stroke="black" fill="none" points="1549.1381106010372,993.9400159195991 1410.8796005003962,948.223039185902" />
<polyline stroke="black" fill="none" points="1152.3705471320022,769.3490322902041 1159.346654957004,986.896171269108" />
<polyline stroke="black" fill="none" points="1159.346654957004,986.896171269108 1410.8796005003962,948.223039185902" />
<polyline stroke="black" fill="none" points="1389.8043887724846,659.4542052737412 1410.8796005003962,948.223039185902" />
<polyline stroke="black" fill="none" points="592.056638709644,1050.357727316215 756.1627865854553,1023.5733853585817" />
<polyline stroke="black" fill="none" points="592.056638709644,1050.357727316215 476.9274740371301,1030.426655408814" />
<polyline stroke="black" fill="none" points="761.8363425188256,849.5226785741884 756.1627865854553,1023.5733853585817" />
<polyline stroke="black" fill="none" points="756.1627865854553,1023.5733853585817 568.6688525729448,986.4166247379261" />
<polyline stroke="black" fill="none" points="577.300985971298,849.3002355331953 568.6688525729448,986.4166247379261" />
<polyline stroke="black" fill="none" points="761.9087567258239,847.3011892547395 924.4440716491254,810.1412026453927" />
<polyline stroke="black" fill="none" points="761.9087567258239,847.3011892547395 678.4660694472107,824.026873465968" />
<polyline stroke="black" fill="none" points="943.7013341301362,815.83966176685 1152.3552529226479,768.8720884740526" />
<polyline stroke="black" fill="none" points="943.7013341301362,815.83966176685 847.2820749106723,785.0145202283716" />
<polyline stroke="black" fill="none" points="1152.3552529226479,768.8720884740526 1052.277687587905,730.5803344793442" />
<polyline stroke="black" fill="none" points="1152.3001418077527,767.1534703459802 1393.6890569347179,712.681243266348" />
<polyline stroke="black" fill="none" points="1152.3001418077527,767.1534703459802 1055.7630014343465,730.125649901205" />
<polyline stroke="black" fill="none" points="1374.155453682395,445.03525678235 1393.6890569347179,712.681243266348" />
<polyline stroke="black" fill="none" points="1374.155453682395,445.03525678235 1217.2623521865512,344.5435515509093" />
<polyline stroke="black" fill="none" points="1393.6890569347179,712.681243266348 1230.659894650712,634.8327852917183" />
<polyline stroke="black" fill="none" points="1171.3782840410217,360.8671916906542 1217.2623521865512,344.5435515509093" />
<polyline stroke="black" fill="none" points="1217.2623521865512,344.5435515509093 1230.659894650712,634.8327852917183" />
<polyline stroke="black" fill="none" points="401.6381475275191,1043.628846042558 566.9350827993376,1013.9565433303205" />
<polyline stroke="black" fill="none" points="401.6381475275191,1043.628846042558 179.84351648791835,1007.5073891493394" />
<polyline stroke="black" fill="none" points="577.2429437636322,850.2222020470726 566.9350827993376,1013.9565433303205" />
<polyline stroke="black" fill="none" points="566.9350827993376,1013.9565433303205 343.3144836917413,972.2470791638109" />
<polyline stroke="black" fill="none" points="212.26874838444508,748.2757221951995 179.84351648791835,1007.5073891493394" />
<polyline stroke="black" fill="none" points="212.26874838444508,748.2757221951995 370.8530782130663,695.2963210296878" />
<polyline stroke="black" fill="none" points="179.84351648791835,1007.5073891493394 343.3144836917413,972.2470791638109" />
<polyline stroke="black" fill="none" points="370.8530782130663,695.2963210296878 343.3144836917413,972.2470791638109" />
<polyline stroke="black" fill="none" points="577.3518588091588,848.4921502645645 757.3731544052177,804.3768501375523" />
<polyline stroke="black" fill="none" points="577.3518588091588,848.4921502645645 361.14120646061485,792.966891786666" />
<polyline stroke="black" fill="none" points="569.2529868524003,459.94724526072304 567.0158285380141,459.01092210096476" />
<polyline stroke="black" fill="none" points="387.14424625534593,531.4589350401466 361.14120646061485,792.966891786666" />
<polyline stroke="black" fill="none" points="387.14424625534593,531.4589350401466 567.0158285380141,459.01092210096476" />
<polyline stroke="black" fill="none" points="361.14120646061485,792.966891786666 547.7175317582055,738.3643143308744" />
<polyline stroke="black" fill="none" points="567.0158285380141,459.01092210096476 547.7175317582055,738.3643143308744" />
<polyline stroke="black" fill="none" points="763.2803079742831,805.2253787773523 979.3243178764639,752.4674716354293" />
<polyline stroke="black" fill="none" points="763.2803079742831,805.2253787773523 547.5438025705524,740.8791392635591" />
<polyline stroke="black" fill="none" points="979.3149817478718,749.5773403650767 979.3243178764639,752.4674716354293" />
<polyline stroke="black" fill="none" points="979.3243178764639,752.4674716354293 767.4686728772824,676.7366707785025" />
<polyline stroke="black" fill="none" points="566.8579858004168,461.29578198729376 547.5438025705524,740.8791392635591" />
<polyline stroke="black" fill="none" points="566.8579858004168,461.29578198729376 777.247581286675,376.7438725716911" />
<polyline stroke="black" fill="none" points="547.5438025705524,740.8791392635591 767.4686728772824,676.7366707785025" />
<polyline stroke="black" fill="none" points="777.247581286675,376.7438725716911 767.4686728772824,676.7366707785025" />
<polyline stroke="black" fill="none" points="979.3100387463983,748.0471640198002 1233.0078570555004,685.7069071063389" />
<polyline stroke="black" fill="none" points="979.3100387463983,748.0471640198002 767.6261506854838,671.9056399149292" />
<polyline stroke="black" fill="none" points="1219.3827109298436,390.4861053060114 1233.0078570555004,685.7069071063389" />
<polyline stroke="black" fill="none" points="1219.3827109298436,390.4861053060114 1026.4947225762216,271.8829397155826" />
<polyline stroke="black" fill="none" points="1233.0078570555004,685.7069071063389 1030.397668648311,594.798570623317" />
<polyline stroke="black" fill="none" points="777.389474251205,372.3909462845039 767.6261506854838,671.9056399149292" />
<polyline stroke="black" fill="none" points="777.389474251205,372.3909462845039 1026.4947225762216,271.8829397155826" />
<polyline stroke="black" fill="none" points="767.6261506854838,671.9056399149292 1030.397668648311,594.798570623317" />
<polyline stroke="black" fill="none" points="1026.4947225762216,271.8829397155826 1030.397668648311,594.798570623317" />
</g></svg>